<svg xmlns="http://www.w3.org/2000/svg" version="1.1" xmlns:xlink="http://www.w3.org/1999/xlink" xmlns:svgjs="http://svgjs.dev/svgjs" width="1000" height="1000"><g clip-path="url(#SvgjsClipPath1194)"><rect width="1000" height="1000" fill="#ffffff"></rect><g transform="matrix(9.210526315789474,0,0,9.210526315789474,150,325)"><svg xmlns="http://www.w3.org/2000/svg" version="1.1" xmlns:xlink="http://www.w3.org/1999/xlink" xmlns:svgjs="http://svgjs.dev/svgjs" width="76" height="38"><svg width="76" height="38" viewBox="0 0 76 38" fill="none" xmlns="http://www.w3.org/2000/svg">
<path d="M23.6589 18.1792C23.4472 15.6938 22.6346 13.7015 21.2212 12.2023C21.1039 12.078 21.0337 11.9162 21.0228 11.7449C21.0119 11.5737 21.061 11.4039 21.1615 11.2649C21.4369 10.8876 21.6382 10.4641 21.7656 9.99418C21.7688 9.98246 21.7677 9.96977 21.7626 9.95853C21.7574 9.94729 21.7485 9.93829 21.7376 9.93325C21.7267 9.92821 21.7145 9.92748 21.7034 9.9312C21.6922 9.93492 21.6829 9.94283 21.6772 9.95342L20.961 11.0539C20.9258 11.1076 20.8798 11.1533 20.8259 11.188C20.7721 11.2226 20.7116 11.2454 20.6484 11.255C20.5853 11.2645 20.5209 11.2604 20.4596 11.2431C20.3982 11.2258 20.3413 11.1957 20.2925 11.1546C18.6101 9.73684 16.9101 8.28875 15.1927 6.81029C14.6945 6.38194 13.8907 5.29107 12.7813 3.5377C12.7256 3.44979 12.689 3.45778 12.6715 3.56167C12.5903 4.06355 12.5656 4.43677 12.5975 4.68131C13.1132 8.64918 15.6631 10.5912 18.5329 13.0246C18.5893 13.0726 18.634 13.1331 18.6632 13.2013C18.6924 13.2695 18.7055 13.3436 18.7013 13.4178C18.6971 13.4919 18.6759 13.5641 18.6392 13.6286C18.6025 13.6931 18.5514 13.7481 18.4899 13.7894C16.821 14.9043 15.2596 15.8417 13.3137 16.6161C11.8764 17.1891 10.4391 17.7789 8.99231 18.3375C6.45834 19.3125 4.31833 20.8541 2.57225 22.9623C1.82973 23.8589 1.14212 25.1392 0.915303 26.3356C0.867552 26.5833 0.903364 26.5961 1.02274 26.3739C1.78197 24.9514 2.53166 23.8773 3.27179 23.1517C4.30639 22.1367 5.71582 21.2177 7.5001 20.3945C8.47103 19.947 10.2728 19.2006 12.9055 18.1553C15.7777 17.0141 17.6543 16.0167 19.4807 14.1179C19.5096 14.087 19.5491 14.0681 19.5915 14.065C19.6338 14.0619 19.6761 14.0748 19.7099 14.1011C21.3557 15.3654 22.6044 16.9453 23.4559 18.841C23.7472 19.4883 23.795 20.2483 23.9167 20.9651C23.9311 21.0451 23.9581 21.0491 23.9979 20.9771C24.625 19.8359 25.085 19.1007 25.3779 18.7714C26.7117 17.2642 28.34 16.3388 30.2628 15.9951C30.3306 15.983 30.4005 15.9894 30.465 16.0137C30.5296 16.038 30.5864 16.0793 30.6296 16.1332C30.6728 16.1871 30.7008 16.2517 30.7106 16.3202C30.7204 16.3887 30.7117 16.4586 30.6854 16.5226C29.4606 19.4787 28.0591 22.2574 24.7739 23.3099C24.4945 23.401 24.2558 23.6192 23.9549 23.3531C23.8976 23.3019 23.8356 23.2963 23.7687 23.3363C23.487 23.5025 23.2275 23.5529 22.9904 23.4873C21.2825 23.0206 20.2447 21.9321 19.877 20.2219C19.8604 20.1423 19.8114 20.0716 19.741 20.0253C19.273 19.7232 18.9889 20.0901 18.8074 20.5144C17.9264 22.5427 16.938 24.0915 14.8847 24.993C12.9461 25.8441 11.1315 25.307 9.86375 23.6695C9.80486 23.5944 9.76746 23.604 9.75154 23.6983C9.56531 24.806 9.73244 26.0646 10.1646 27.0932C10.4272 27.7261 10.9381 27.9994 11.2915 28.5077C11.3297 28.562 11.3822 28.5852 11.4491 28.5772C11.5573 28.5628 11.691 28.5828 11.8502 28.6372C14.2186 29.4523 16.7255 27.9443 17.7044 25.8009C18.0363 25.0697 18.7334 23.5161 19.4807 23.3914C19.7975 23.3387 20.0283 23.5033 20.1731 23.8853C20.5026 24.7556 20.7771 25.7578 21.5411 26.2996C22.5558 27.0164 23.4416 26.9421 24.6306 26.8774C24.7042 26.8735 24.7778 26.8846 24.847 26.91C24.9162 26.9354 24.9795 26.9746 25.0333 27.0252C25.087 27.0758 25.13 27.1368 25.1597 27.2045C25.1894 27.2722 25.2051 27.3452 25.206 27.4192C25.2299 29.6281 26.2868 31.1873 28.3766 32.0968C29.6372 32.6466 30.7753 32.971 31.7908 33.0701C33.0037 33.1876 34.8779 33.1972 36.2316 32.9263C39.5614 32.2598 42.5657 30.8532 45.2445 28.7067C47.9567 26.5313 50.4891 24.1602 52.8416 21.5933C53.768 20.5839 55.2602 19.5482 56.2677 21.085C56.4906 21.4223 56.7787 22.1863 57.132 23.377C57.3151 23.9956 57.6987 24.3033 58.2828 24.3001C59.085 24.2953 59.7726 24.034 60.114 23.2548C60.2907 22.8504 60.5677 22.7617 60.9449 22.9886C61.0181 23.0334 61.0969 23.0502 61.1813 23.039C61.7543 22.9591 62.1808 22.6226 62.461 22.0296C63.1486 20.5767 63.8768 18.5724 63.5354 17.0812C63.521 17.0189 63.5043 17.0181 63.4852 17.0788C63.2735 17.7469 62.909 18.3543 62.3917 18.9009C61.9978 19.3157 61.3245 19.7065 60.9544 18.98C60.9242 18.9193 60.894 18.9193 60.8637 18.98C60.4244 19.8719 58.6815 21.6149 57.5761 20.6463C56.8025 19.967 56.3195 19.0423 56.1269 17.8724C56.0409 17.3465 55.6677 16.9781 55.0071 16.7671C54.9371 16.7447 54.8678 16.7447 54.7994 16.7671C54.1914 16.9685 53.659 17.3002 53.2021 17.7621C52.1978 18.7722 51.2285 19.8135 50.2941 20.886C49.8182 21.4327 48.5059 22.6162 46.3571 24.4367C43.886 26.5274 40.3692 28.4238 36.8786 29.3157C36.0573 29.5266 35.0593 29.5482 34.1497 29.7976C33.5623 29.9582 32.0033 29.6105 31.0077 29.4451C29.0881 29.1255 27.4041 28.3127 25.9557 27.0069C25.9077 26.9638 25.8708 26.9098 25.8479 26.8493C25.8251 26.7889 25.8171 26.7239 25.8246 26.6597C25.8321 26.5955 25.8549 26.5341 25.891 26.4806C25.9271 26.4271 25.9755 26.3831 26.0321 26.3523C28.1259 25.2015 29.1072 23.0102 29.9429 20.8573C30.5111 19.3868 31.2067 17.9771 32.0296 16.6281C32.2174 16.3196 32.3224 15.9999 32.3447 15.6691C32.4131 14.6573 32.4195 13.632 32.3638 12.5931C32.359 12.4988 32.3089 12.4556 32.2134 12.4636C31.2703 12.5523 30.2532 12.4372 29.3985 12.6986C26.8836 13.461 25.2124 15.1536 24.3847 17.7765C24.2558 18.1824 24.1125 18.3039 23.9549 18.1409C25.2187 13.9772 28.0663 11.9817 32.4975 12.1543C32.5418 12.1565 32.5839 12.1746 32.6159 12.2055C32.648 12.2363 32.6678 12.2778 32.6718 12.3222C32.7514 13.3323 32.7593 14.3552 32.6957 15.391C32.675 15.7506 32.5683 16.1014 32.3757 16.4435C31.4621 18.0786 30.5111 20.1028 29.5227 22.5163C28.8526 24.1546 27.7097 25.5156 26.0942 26.5993C26.0114 26.6552 26.0058 26.7192 26.0774 26.7911C28.6918 29.4092 33.2281 29.8239 36.6255 29.1119C42.3174 27.9179 47.4673 23.6767 51.2778 19.3636C52.111 18.4214 53.9805 16.2924 55.2148 16.5729C56.9267 16.9637 56.2462 20.6199 58.4308 20.5816C60.348 20.5504 60.8088 18.2871 61.1789 16.9158C61.2632 16.6105 61.3078 16.6161 61.3126 16.9326L61.3436 18.9704C61.3468 19.1638 61.4383 19.227 61.6182 19.1598C62.9838 18.6516 63.7192 15.6571 63.8266 14.3816C63.8268 14.3776 63.8277 14.3737 63.8294 14.37C63.831 14.3663 63.8333 14.3629 63.8362 14.36C63.8391 14.357 63.8425 14.3547 63.8462 14.353C63.8498 14.3514 63.8538 14.3504 63.8577 14.3503C63.8616 14.3501 63.8654 14.3508 63.869 14.3521C63.8726 14.3535 63.8758 14.3556 63.8784 14.3583C63.8811 14.361 63.8832 14.3642 63.8845 14.3678C63.8859 14.3714 63.8865 14.3752 63.8863 14.3792C64.2556 16.9861 63.9086 19.4555 62.8454 21.7875C62.3679 22.8352 61.7543 23.5209 60.5677 23.1397C60.4785 23.1109 60.4133 23.1389 60.3719 23.2236C59.8896 24.2529 59.0739 24.7005 57.9247 24.5662C57.8435 24.5566 57.8117 24.5926 57.8292 24.6741C58.2366 26.5825 59.2434 27.8891 60.8494 28.594C64.0654 30.0061 67.088 26.9781 67.8377 23.998C67.9364 23.6064 67.9459 23.2292 67.8663 22.8664C66.7315 17.6798 64.9193 12.7497 62.4299 8.07617C62.2294 7.70057 62.1132 7.31537 62.0814 6.92058C61.9397 5.20237 61.9604 3.50014 62.1434 1.8139C62.145 1.79576 62.1524 1.77861 62.1645 1.76506C62.1766 1.75151 62.1927 1.74228 62.2105 1.73876C62.2283 1.73524 62.2468 1.73762 62.2631 1.74555C62.2794 1.75349 62.2927 1.76654 62.301 1.78273C65.5019 7.78927 67.5957 14.1363 68.5826 20.8237C68.7999 22.2958 68.7354 23.8062 68.7282 25.3214C68.7282 25.3965 68.7545 25.4613 68.807 25.5156C70.9343 27.7117 73.8853 25.9999 74.74 23.5401C74.7639 23.4697 74.7607 23.4002 74.7305 23.3315C74.3914 22.5803 73.8686 21.9849 73.1619 21.5453C73.1253 21.3935 73.1929 21.3727 73.3648 21.483C73.8901 21.8203 74.3262 22.2422 74.6732 22.7489C74.6841 22.7652 74.6998 22.7778 74.718 22.7849C74.7363 22.792 74.7563 22.7933 74.7754 22.7886C74.7944 22.7839 74.8115 22.7734 74.8244 22.7586C74.8373 22.7438 74.8454 22.7253 74.8475 22.7057C75.1196 20.4952 74.3246 16.9421 71.2375 17.5655C70.4234 17.7309 70.1345 18.3327 70.1178 19.0975C70.0987 20.0613 69.8313 23.0078 70.6979 23.5952C71.6291 24.2257 72.5292 23.4346 72.5913 22.4396C72.6183 21.9857 72.7226 21.7579 72.904 21.7563C72.9661 22.8424 72.4289 24.2473 71.1444 24.0292C70.4711 23.9117 70.0796 23.4034 69.965 22.7153C69.7644 21.5262 69.4994 18.5724 70.464 17.6638C71.0004 17.1571 71.6585 17.0173 72.4384 17.2442C74.4034 17.8124 75.0791 19.7592 75.1889 21.6101C75.3051 23.5968 75.2231 25.3358 74.943 26.827C74.5251 29.0423 72.1663 31.3919 69.7644 30.2866C68.7219 29.8071 68.1648 28.8881 68.0931 27.5295C68.1377 27.5007 68.1958 27.5039 68.2674 27.5391C68.3017 27.5566 68.3309 27.5826 68.3522 27.6145C68.3735 27.6464 68.3863 27.6832 68.3892 27.7213C68.511 29.4979 69.7907 30.5 71.5121 30.2483C73.1523 30.0061 73.9593 28.7978 74.5657 27.2514C74.697 26.9205 74.6254 26.5801 74.74 26.2229C74.9692 25.5084 74.9215 25.0217 74.7925 24.336C74.7782 24.2529 74.7504 24.2481 74.709 24.3216C74.0309 25.5492 73.0536 26.3332 71.7771 26.6736C71.15 26.8414 70.565 26.8167 70.0223 26.5993C69.4604 26.3723 68.9678 26.0199 68.5444 25.542C68.4918 25.4829 68.4599 25.4079 68.4537 25.3286C68.3948 24.5518 68.3693 23.775 68.3773 22.9982C68.3868 22.0792 68.3478 21.3184 68.2603 20.7158C67.353 14.4871 65.4661 8.56926 62.5994 2.9623C62.5896 2.94364 62.5743 2.92848 62.5555 2.91885C62.5368 2.90923 62.5156 2.90561 62.4948 2.90848C62.4739 2.91136 62.4545 2.92059 62.439 2.93493C62.4236 2.94928 62.4129 2.96804 62.4084 2.98867C62.3209 3.42981 62.2588 3.88454 62.2222 4.35285C62.1601 5.18239 62.4132 6.05748 62.4538 6.95175C62.4697 7.31457 62.5517 7.64223 62.6997 7.93472C64.2325 10.962 65.4127 13.6632 66.2404 16.0383C66.772 17.5679 67.3848 19.716 68.0788 22.4828C68.382 23.6983 68.1695 24.1442 67.6729 25.2039C66.7163 27.245 65.2576 28.5405 63.2966 29.0903C62.7347 29.2485 62.1832 29.2517 61.6421 29.0999C59.806 28.5892 59.011 27.5679 57.939 26.0742C57.8817 25.9975 57.8507 26.0071 57.8459 26.103C57.7026 28.9776 58.8463 32.3461 62.1649 32.6626C65.0276 32.9335 67.1716 30.2147 67.6491 27.6134C67.6548 27.5799 67.6728 27.5497 67.6997 27.5285C67.7265 27.5073 67.7603 27.4966 67.7947 27.4983C67.8647 27.5031 67.9069 27.5199 67.9212 27.5487C67.579 29.2893 66.7713 30.6902 65.4979 31.7515C63.1414 33.7127 60.2024 33.2092 58.5502 30.5647C57.5976 29.0399 57.4543 26.6832 57.471 24.5518C57.4726 24.4703 57.4519 24.396 57.409 24.3288C56.9776 23.6495 56.6259 22.7976 56.3537 21.7731C56.1221 20.9052 55.3151 20.3682 54.4198 20.6846C53.9964 20.8349 53.7051 20.9923 53.5459 21.1569C48.3244 26.5561 43.0098 32.406 35.0713 33.3578C31.1796 33.8254 24.8789 32.4156 24.9004 27.2826C24.9002 27.2572 24.8944 27.2323 24.8836 27.2095C24.8727 27.1867 24.8569 27.1666 24.8375 27.1508C24.818 27.1349 24.7954 27.1237 24.7712 27.1178C24.7469 27.112 24.7218 27.1118 24.6975 27.1171C23.1026 27.4608 21.8149 27.0564 20.8344 25.904C20.388 25.3813 20.2304 24.559 19.9343 23.8853C19.9045 23.8172 19.8583 23.7575 19.8 23.7115C19.7417 23.6656 19.6731 23.6348 19.6002 23.622C19.5274 23.6092 19.4526 23.6147 19.3826 23.6381C19.3126 23.6614 19.2495 23.7019 19.199 23.7558C18.3896 24.6117 17.9646 25.928 17.4513 26.652C16.0833 28.582 13.9106 29.6777 11.5565 28.8026C11.4737 28.7722 11.4332 28.801 11.4347 28.8889C11.4801 31.9649 10.7471 35.2375 8.09698 37.0644C5.98164 38.5245 3.05691 38.3015 1.50025 36.2133C0.882672 35.3869 0.449734 34.1506 0.201431 32.5043C-0.0245883 31.0179 -0.0604005 29.6825 0.0939929 28.4981C0.795926 23.1109 4.34857 19.9031 9.17376 18.0186C13.063 16.4986 15.7108 15.5899 18.3896 13.5113C18.413 13.4931 18.4318 13.4697 18.4447 13.443C18.4577 13.4163 18.4643 13.387 18.464 13.3575C18.4638 13.328 18.4567 13.299 18.4434 13.2729C18.4301 13.2467 18.4108 13.2241 18.3872 13.2068C16.8624 12.0832 15.4975 10.775 14.2926 9.28212C12.0125 6.45546 12.0674 3.38186 12.3539 0.0541253C12.3539 0.0404203 12.3594 0.0270243 12.369 0.0168838C12.3786 0.00674328 12.3917 0.000691494 12.4053 5.56367e-05C12.4189 -0.00058022 12.4319 0.00425493 12.4416 0.0134962C12.4512 0.0227375 12.4566 0.0356279 12.4566 0.0493329C12.5975 0.979564 12.4757 2.01529 12.8315 2.86161C13.5206 4.4967 14.4335 5.80734 15.5699 6.79351C17.2078 8.21443 18.8218 9.59938 20.4118 10.9484C20.5408 11.0571 20.6506 11.0403 20.7413 10.898C22.1611 8.67475 22.9458 6.23649 23.0954 3.58325C23.1002 3.50333 23.1225 3.49774 23.1623 3.56647C23.2164 3.65758 23.2427 3.73829 23.2411 3.80862C23.2013 6.63128 22.5678 9.3029 21.3406 11.8235C21.304 11.9002 21.3143 11.9689 21.3716 12.0297C23.0158 13.7846 23.7783 15.8345 23.6589 18.1792ZM9.83749 21.1426L9.82794 22.9599C9.82635 23.0318 9.84306 23.0997 9.87808 23.1637C10.346 24.0411 11.0042 24.6213 11.8526 24.9042C14.3165 25.729 16.7995 24.0124 17.9217 21.893C18.2201 21.3272 18.5496 19.716 19.581 19.6345C19.6166 19.6316 19.6526 19.6369 19.6861 19.6502C19.7196 19.6635 19.7498 19.6844 19.7744 19.7113C20.2853 20.2962 20.2686 21.061 20.6172 21.5837C21.1711 22.4132 22.0473 22.9767 23.2458 23.2739C23.2971 23.2867 23.3507 23.2871 23.4021 23.2749C23.4536 23.2627 23.5013 23.2383 23.5415 23.2039C23.5817 23.1694 23.6131 23.1258 23.6331 23.0767C23.6531 23.0276 23.6611 22.9744 23.6565 22.9215C23.6087 22.3046 23.5817 21.6412 23.5753 20.9316C23.5538 18.2943 21.6534 15.9879 19.6884 14.3912C19.6279 14.3416 19.5698 14.344 19.5141 14.3984C17.975 15.8928 16.2146 17.0572 14.2329 17.8916C9.16898 20.0229 2.80861 21.4854 0.994092 27.5199C0.356622 29.6441 0.786376 32.1495 2.81339 33.3602C6.17025 35.3669 10.7137 32.2933 10.9071 28.5413C10.9093 28.5016 10.9027 28.4622 10.8878 28.4261C10.8729 28.3899 10.8501 28.358 10.8211 28.3327C9.5868 27.2226 9.49846 26.0215 9.44116 24.2713C9.40614 23.2196 9.47618 22.1711 9.65126 21.1258C9.65348 21.101 9.66541 21.0781 9.68444 21.0621C9.70347 21.0462 9.72804 21.0384 9.75273 21.0407C9.77743 21.0429 9.80023 21.0549 9.81613 21.074C9.83202 21.0931 9.83971 21.1178 9.83749 21.1426ZM24.368 23.2164C27.7607 22.1016 29.3484 19.5866 30.4132 16.3428C30.4403 16.2612 30.4116 16.2285 30.3272 16.2445C27.4367 16.7719 25.4344 18.3639 24.3202 21.0203C24.0385 21.6892 24.0122 22.3533 24.1054 23.0486C24.126 23.21 24.2136 23.266 24.368 23.2164ZM11.0432 29.8167C9.89479 31.9985 8.75355 33.5209 6.26814 34.0891C5.24468 34.3224 4.28649 34.2569 3.39356 33.8925C2.09952 33.365 1.19385 32.3701 0.67655 30.9076C0.635166 30.7877 0.60731 30.6638 0.592985 30.536C0.583435 30.4545 0.551603 30.4449 0.497486 30.5072C0.475202 30.5328 0.462468 30.5647 0.459284 30.6031C0.32797 31.9697 0.583435 33.5808 0.984539 34.7939C1.95626 37.7261 5.33223 38.4813 7.82958 37.002C10.1383 35.6331 11.1363 32.4516 11.0933 29.8287C11.0936 29.8226 11.0917 29.8166 11.088 29.8117C11.0843 29.8069 11.0791 29.8034 11.0732 29.802C11.0673 29.8006 11.061 29.8013 11.0556 29.804C11.0501 29.8067 11.0457 29.8112 11.0432 29.8167Z" fill="#363535"></path>
<path d="M36.8046 9.19581C36.8475 9.09991 36.873 8.98243 36.881 8.84337C36.9542 7.50557 37.0099 6.16856 37.0481 4.83236C37.072 4.04358 37.3059 2.14475 38.2896 2.03207C38.522 2.00649 38.7273 2.15834 38.9056 2.4876C39.0775 2.80886 39.0584 3.28597 38.8483 3.91891C38.8228 3.99723 38.7679 4.03479 38.6835 4.03159L38.1201 4.00761C38.0341 4.00342 37.9495 4.03006 37.8812 4.08276C37.813 4.13546 37.7656 4.21079 37.7476 4.29531C37.4834 5.53562 37.3171 6.78792 37.2486 8.0522C37.1866 9.18862 37.0051 9.95821 36.5276 10.8837C36.5168 10.9045 36.4991 10.9209 36.4775 10.93C36.456 10.9391 36.4319 10.9403 36.4095 10.9335C36.3871 10.9267 36.3678 10.9122 36.3549 10.8926C36.3421 10.873 36.3364 10.8495 36.339 10.8261C36.5252 9.03758 36.0493 7.46162 34.9112 6.09824C34.8555 6.02951 34.7839 5.99834 34.6964 6.00473L34.1735 6.04309C34.1214 6.0467 34.069 6.0396 34.0198 6.02222C33.9705 6.00484 33.9253 5.97754 33.8871 5.94204C33.8488 5.90653 33.8182 5.86355 33.7973 5.81578C33.7763 5.768 33.7654 5.71645 33.7652 5.66429L33.7557 4.22339C33.7547 4.14311 33.7762 4.06417 33.8178 3.99563C33.8595 3.92709 33.9195 3.87174 33.9911 3.83594C34.0627 3.80013 34.1428 3.78532 34.2224 3.79322C34.302 3.80111 34.3777 3.83138 34.4409 3.88055C36.1026 5.16081 36.6327 7.13635 36.6541 9.16464C36.6545 9.18254 36.661 9.19979 36.6724 9.21354C36.6838 9.2273 36.6995 9.23676 36.717 9.24038C36.7344 9.244 36.7526 9.24156 36.7685 9.23347C36.7844 9.22537 36.7971 9.21209 36.8046 9.19581Z" fill="#177E32"></path>
<path d="M68.0931 27.5295C68.0088 27.5183 67.9515 27.5247 67.9212 27.5487C67.9069 27.5199 67.8647 27.5031 67.7947 27.4983C67.7603 27.4966 67.7265 27.5073 67.6997 27.5285C67.6728 27.5497 67.6548 27.5799 67.6491 27.6134C67.1716 30.2147 65.0276 32.9335 62.1649 32.6626C58.8463 32.3461 57.7026 28.9776 57.8459 26.103C57.8507 26.0071 57.8817 25.9975 57.939 26.0742C59.011 27.5679 59.806 28.5892 61.6421 29.0999C62.1832 29.2517 62.7347 29.2485 63.2966 29.0903C65.2576 28.5405 66.7163 27.245 67.6729 25.2039C68.1695 24.1442 68.382 23.6983 68.0788 22.4828C67.3848 19.716 66.772 17.5679 66.2404 16.0383C65.4127 13.6632 64.2325 10.962 62.6997 7.93472C62.5517 7.64223 62.4697 7.31457 62.4538 6.95175C62.4132 6.05748 62.1601 5.18239 62.2222 4.35285C62.2588 3.88454 62.3209 3.42981 62.4084 2.98867C62.4129 2.96804 62.4236 2.94928 62.439 2.93493C62.4545 2.92059 62.4739 2.91136 62.4948 2.90848C62.5156 2.90561 62.5368 2.90923 62.5555 2.91885C62.5743 2.92848 62.5896 2.94364 62.5994 2.9623C65.4661 8.56926 67.353 14.4871 68.2603 20.7158C68.3478 21.3184 68.3868 22.0792 68.3773 22.9982C68.3693 23.775 68.3948 24.5518 68.4537 25.3286C68.4599 25.4079 68.4918 25.4829 68.5444 25.542C68.9678 26.0199 69.4604 26.3723 70.0223 26.5993C70.565 26.8167 71.15 26.8414 71.7771 26.6736C73.0536 26.3332 74.0309 25.5492 74.709 24.3216C74.7504 24.2481 74.7782 24.2529 74.7925 24.336C74.9215 25.0217 74.9692 25.5084 74.74 26.2229C74.6254 26.5801 74.697 26.9205 74.5657 27.2514C73.9593 28.7978 73.1523 30.0061 71.5121 30.2483C69.7907 30.5 68.511 29.4979 68.3892 27.7213C68.3863 27.6832 68.3735 27.6464 68.3522 27.6145C68.3309 27.5826 68.3017 27.5566 68.2674 27.5391C68.1958 27.5039 68.1377 27.5007 68.0931 27.5295Z" fill="#363535"></path>
<path d="M23.6589 18.1792C23.834 18.1249 23.9327 18.1121 23.9549 18.1409C24.1125 18.3039 24.2558 18.1824 24.3847 17.7765C25.2124 15.1536 26.8836 13.461 29.3985 12.6986C30.2532 12.4372 31.2703 12.5523 32.2134 12.4636C32.3089 12.4556 32.359 12.4988 32.3638 12.5931C32.4195 13.632 32.4131 14.6573 32.3447 15.6691C32.3224 15.9999 32.2174 16.3196 32.0296 16.6281C31.2067 17.9771 30.5111 19.3868 29.9429 20.8573C29.1072 23.0102 28.1259 25.2015 26.0321 26.3523C25.9755 26.3831 25.9271 26.4271 25.891 26.4806C25.8549 26.5341 25.8321 26.5955 25.8246 26.6597C25.8171 26.7239 25.8251 26.7889 25.8479 26.8493C25.8708 26.9098 25.9077 26.9638 25.9557 27.0069C27.4041 28.3127 29.0881 29.1255 31.0077 29.4451C32.0033 29.6105 33.5623 29.9582 34.1497 29.7976C35.0593 29.5482 36.0573 29.5266 36.8786 29.3157C40.3692 28.4238 43.886 26.5274 46.3571 24.4367C48.5059 22.6162 49.8182 21.4327 50.2941 20.886C51.2285 19.8135 52.1978 18.7722 53.2021 17.7621C53.659 17.3002 54.1914 16.9685 54.7994 16.7671C54.8678 16.7447 54.9371 16.7447 55.0071 16.7671C55.6677 16.9781 56.0409 17.3465 56.1269 17.8724C56.3195 19.0423 56.8025 19.967 57.5761 20.6463C58.6815 21.6149 60.4244 19.8719 60.8637 18.98C60.894 18.9193 60.9242 18.9193 60.9544 18.98C61.3245 19.7065 61.9978 19.3157 62.3917 18.9009C62.909 18.3543 63.2735 17.7469 63.4852 17.0788C63.5043 17.0181 63.521 17.0189 63.5354 17.0812C63.8768 18.5724 63.1486 20.5767 62.461 22.0296C62.1808 22.6226 61.7543 22.9591 61.1813 23.039C61.0969 23.0502 61.0181 23.0334 60.9449 22.9886C60.5677 22.7617 60.2907 22.8504 60.114 23.2548C59.7726 24.034 59.085 24.2953 58.2828 24.3001C57.6987 24.3033 57.3151 23.9956 57.132 23.377C56.7787 22.1863 56.4906 21.4223 56.2677 21.085C55.2602 19.5482 53.768 20.5839 52.8416 21.5933C50.4891 24.1602 47.9567 26.5313 45.2445 28.7067C42.5657 30.8532 39.5614 32.2598 36.2316 32.9263C34.8779 33.1972 33.0037 33.1876 31.7908 33.0701C30.7753 32.971 29.6372 32.6466 28.3766 32.0968C26.2868 31.1873 25.2299 29.6281 25.206 27.4192C25.2051 27.3452 25.1894 27.2722 25.1597 27.2045C25.13 27.1368 25.087 27.0758 25.0333 27.0252C24.9795 26.9746 24.9162 26.9354 24.847 26.91C24.7778 26.8846 24.7042 26.8735 24.6306 26.8774C23.4416 26.9421 22.5558 27.0164 21.5411 26.2996C20.7771 25.7578 20.5026 24.7556 20.1731 23.8853C20.0283 23.5033 19.7975 23.3387 19.4807 23.3914C18.7334 23.5161 18.0363 25.0697 17.7044 25.8009C16.7255 27.9443 14.2186 29.4523 11.8502 28.6372C11.691 28.5828 11.5573 28.5628 11.4491 28.5772C11.3822 28.5852 11.3297 28.562 11.2915 28.5077C10.9381 27.9994 10.4272 27.7261 10.1646 27.0932C9.73244 26.0646 9.56531 24.806 9.75154 23.6983C9.76746 23.604 9.80486 23.5944 9.86375 23.6695C11.1315 25.307 12.9461 25.8441 14.8847 24.993C16.938 24.0915 17.9264 22.5427 18.8074 20.5144C18.9889 20.0901 19.273 19.7232 19.741 20.0253C19.8114 20.0716 19.8604 20.1423 19.877 20.2219C20.2447 21.9321 21.2825 23.0206 22.9904 23.4873C23.2275 23.5529 23.487 23.5025 23.7687 23.3363C23.8356 23.2963 23.8976 23.3019 23.9549 23.3531C24.2558 23.6192 24.4945 23.401 24.7739 23.3099C28.0591 22.2574 29.4606 19.4787 30.6854 16.5226C30.7117 16.4586 30.7204 16.3887 30.7106 16.3202C30.7008 16.2517 30.6728 16.1871 30.6296 16.1332C30.5864 16.0793 30.5296 16.038 30.465 16.0137C30.4005 15.9894 30.3306 15.983 30.2628 15.9951C28.34 16.3388 26.7117 17.2642 25.3779 18.7714C25.085 19.1007 24.625 19.8359 23.9979 20.9771C23.9581 21.0491 23.9311 21.0451 23.9167 20.9651C23.795 20.2483 23.7472 19.4883 23.4559 18.841C22.6044 16.9453 21.3557 15.3654 19.7099 14.1011C19.6761 14.0748 19.6338 14.0619 19.5915 14.065C19.5491 14.0681 19.5096 14.087 19.4807 14.1179C17.6543 16.0167 15.7777 17.0141 12.9055 18.1553C10.2728 19.2006 8.47103 19.947 7.5001 20.3945C5.71582 21.2177 4.30639 22.1367 3.27179 23.1517C2.53166 23.8773 1.78197 24.9514 1.02274 26.3739C0.903364 26.5961 0.867552 26.5833 0.915303 26.3356C1.14212 25.1392 1.82973 23.8589 2.57225 22.9623C4.31833 20.8541 6.45834 19.3125 8.99231 18.3375C10.4391 17.7789 11.8764 17.1891 13.3137 16.6161C15.2596 15.8417 16.821 14.9043 18.4899 13.7894C18.5514 13.7481 18.6025 13.6931 18.6392 13.6286C18.6759 13.5641 18.6971 13.4919 18.7013 13.4178C18.7055 13.3436 18.6924 13.2695 18.6632 13.2013C18.634 13.1331 18.5893 13.0726 18.5329 13.0246C15.6631 10.5912 13.1132 8.64918 12.5975 4.68131C12.5656 4.43677 12.5903 4.06355 12.6715 3.56167C12.689 3.45778 12.7256 3.44979 12.7813 3.5377C13.8907 5.29107 14.6945 6.38194 15.1927 6.81029C16.9101 8.28875 18.6101 9.73684 20.2925 11.1546C20.3413 11.1957 20.3982 11.2258 20.4596 11.2431C20.5209 11.2604 20.5853 11.2645 20.6484 11.255C20.7116 11.2454 20.7721 11.2226 20.8259 11.188C20.8798 11.1533 20.9258 11.1076 20.961 11.0539L21.6772 9.95342C21.6829 9.94283 21.6922 9.93492 21.7034 9.9312C21.7145 9.92748 21.7267 9.92821 21.7376 9.93325C21.7485 9.93829 21.7574 9.94729 21.7626 9.95853C21.7677 9.96977 21.7688 9.98246 21.7656 9.99418C21.6382 10.4641 21.4369 10.8876 21.1615 11.2649C21.061 11.4039 21.0119 11.5737 21.0228 11.7449C21.0337 11.9162 21.1039 12.078 21.2212 12.2023C22.6346 13.7015 23.4472 15.6938 23.6589 18.1792Z" fill="#363535"></path>
<path d="M35.6776 16.8942C35.8639 15.952 36.0191 15.5468 36.8977 15.0361C43.8358 10.9859 50.9729 7.31297 58.309 4.0172C58.4347 3.96126 58.4849 4.00042 58.4594 4.13468L58.2374 5.3646C58.2215 5.45571 58.1705 5.52123 58.0846 5.56119C50.4922 9.01839 43.0885 12.8432 35.8734 17.0356C35.7047 17.1331 35.6394 17.086 35.6776 16.8942Z" fill="#177E32"></path>
<path d="M72.9494 10.1524L71.3927 13.5209C71.3179 13.6823 71.2121 13.7063 71.0752 13.5928C70.0438 12.7473 68.9288 12.0336 67.7302 11.4518C67.63 11.4023 67.6013 11.3256 67.6443 11.2217L69.0458 7.89156C69.0617 7.85335 69.0917 7.8228 69.1295 7.80627C69.1673 7.78975 69.21 7.78852 69.2487 7.80285C70.573 8.29034 71.7843 8.97843 72.8825 9.8671C72.9235 9.90054 72.9523 9.94667 72.9644 9.9983C72.9765 10.0499 72.9712 10.1041 72.9494 10.1524Z" fill="#B3110C"></path>
<path d="M10.0333 16.115C8.97796 15.2407 7.83354 14.5103 6.59999 13.9237C6.5204 13.8853 6.49812 13.8262 6.53314 13.7463L7.97281 10.3706C8.00783 10.2859 8.06831 10.2595 8.15426 10.2915C9.48969 10.7965 10.7145 11.4998 11.8287 12.4013C11.8923 12.4524 11.9075 12.5163 11.874 12.5931L10.2887 16.0551C10.2779 16.0782 10.262 16.0987 10.2422 16.1148C10.2225 16.1309 10.1994 16.1423 10.1747 16.1481C10.1501 16.1539 10.1245 16.1539 10.1 16.1482C10.0754 16.1424 10.0526 16.1311 10.0333 16.115Z" fill="#B3110C"></path>
<path d="M46.1685 17.599C45.9512 18.009 45.7579 18.4717 45.3448 18.6827C43.8622 19.4331 43.812 17.0956 43.855 16.3164C43.8789 15.8561 43.9402 15.8553 44.0388 16.314C44.0579 16.4019 44.0866 16.5969 44.1248 16.899C44.1411 17.0325 44.2031 17.1563 44.3002 17.249C44.3973 17.3417 44.5235 17.3977 44.6572 17.4072C44.9978 17.4312 45.2732 17.293 45.4833 16.9925C45.8175 16.5154 45.6958 15.6283 45.7244 15.0289C45.7265 15.0042 45.7373 14.981 45.755 14.9636C45.7727 14.9463 45.796 14.9359 45.8207 14.9345C45.8454 14.933 45.8698 14.9406 45.8894 14.9557C45.909 14.9709 45.9225 14.9926 45.9274 15.0169L46.0539 15.6715C46.067 15.7405 46.0955 15.8057 46.1371 15.8622C46.1788 15.9186 46.2326 15.9649 46.2945 15.9977C46.3565 16.0304 46.425 16.0486 46.4949 16.0511C46.5649 16.0536 46.6345 16.0402 46.6985 16.0119C47.613 15.6091 47.4793 14.8563 47.3623 14.0388C47.358 14.0138 47.363 13.9882 47.3763 13.9667C47.3897 13.9452 47.4104 13.9294 47.4346 13.9223C47.4588 13.9152 47.4847 13.9173 47.5075 13.9281C47.5303 13.939 47.5483 13.9579 47.558 13.9812C48.1096 15.1584 48.1931 17.4432 46.3524 17.484C46.3146 17.4853 46.2777 17.4967 46.2455 17.5168C46.2133 17.537 46.1867 17.5654 46.1685 17.599Z" fill="#177E32"></path>
<path d="M73.1619 21.5453C73.0664 21.5182 72.9804 21.5885 72.904 21.7563C72.7226 21.7579 72.6183 21.9857 72.5913 22.4396C72.5292 23.4346 71.6291 24.2257 70.6979 23.5952C69.8313 23.0078 70.0987 20.0613 70.1178 19.0975C70.1345 18.3327 70.4234 17.7309 71.2375 17.5655C74.3246 16.9421 75.1196 20.4952 74.8475 22.7057C74.8454 22.7253 74.8373 22.7438 74.8244 22.7586C74.8115 22.7734 74.7944 22.7839 74.7754 22.7886C74.7563 22.7933 74.7363 22.792 74.718 22.7849C74.6998 22.7778 74.6841 22.7652 74.6732 22.7489C74.3262 22.2422 73.8901 21.8203 73.3648 21.483C73.1929 21.3727 73.1253 21.3935 73.1619 21.5453Z" fill="#363535"></path>
<path d="M54.0616 27.7021C54.0715 27.6945 54.083 27.6892 54.0953 27.6866C54.1075 27.684 54.1202 27.6843 54.1323 27.6873C54.1445 27.6902 54.1558 27.6959 54.1655 27.7039C54.1751 27.7119 54.1829 27.7219 54.1882 27.7333C54.5367 28.4981 54.286 28.9992 53.6295 29.4763C51.6049 30.9483 49.6184 32.5083 47.6702 34.1562C47.6535 34.1705 47.6336 34.1805 47.6121 34.1852C47.5907 34.19 47.5683 34.1894 47.547 34.1835C47.5256 34.1776 47.5059 34.1666 47.4896 34.1514C47.4732 34.1362 47.4606 34.1173 47.4529 34.0963C47.176 33.2955 47.5198 32.8184 48.1573 32.3125C50.0307 30.8245 51.9988 29.2877 54.0616 27.7021Z" fill="#177E32"></path>
<path d="M11.0432 29.8167C11.0457 29.8112 11.0501 29.8067 11.0556 29.804C11.061 29.8013 11.0673 29.8006 11.0732 29.802C11.0791 29.8034 11.0843 29.8069 11.088 29.8117C11.0917 29.8166 11.0936 29.8226 11.0933 29.8287C11.1363 32.4516 10.1383 35.6331 7.82958 37.002C5.33223 38.4813 1.95626 37.7261 0.984539 34.7939C0.583435 33.5808 0.32797 31.9697 0.459284 30.6031C0.462468 30.5647 0.475202 30.5328 0.497486 30.5072C0.551603 30.4449 0.583435 30.4545 0.592985 30.536C0.60731 30.6638 0.635166 30.7877 0.67655 30.9076C1.19385 32.3701 2.09952 33.365 3.39356 33.8925C4.28649 34.2569 5.24468 34.3224 6.26814 34.0891C8.75355 33.5209 9.89479 31.9985 11.0432 29.8167Z" fill="#373536"></path>
<path d="M16.236 36.3955L16.8186 32.5259C16.8297 32.4588 16.8679 32.4172 16.9332 32.4012L22.2741 31.1401C22.3188 31.13 22.3656 31.1348 22.407 31.1539C22.4485 31.173 22.4824 31.2052 22.5033 31.2456C22.5829 31.3975 22.6354 31.6029 22.6609 31.8618C22.7946 33.1996 22.7206 34.9857 21.3358 35.5707C19.7505 36.2404 18.0927 36.5649 16.3626 36.5441C16.2639 36.5441 16.2217 36.4946 16.236 36.3955Z" fill="#B3110C"></path>
</svg></svg></g></g><defs><clipPath id="SvgjsClipPath1194"><rect width="1000" height="1000" x="0" y="0" rx="300" ry="300"></rect></clipPath></defs></svg>