<svg width="87" height="86" viewBox="0 0 87 86" fill="none" xmlns="http://www.w3.org/2000/svg">
<mask id="mask0_100_3696" style="mask-type:alpha" maskUnits="userSpaceOnUse" x="0" y="0" width="86" height="86">
<circle cx="43.109" cy="42.859" r="42.859" fill="#D9D9D9"/>
</mask>
<g mask="url(#mask0_100_3696)">
<path d="M66.6051 78.2432C66.4084 78.3837 66.1835 78.5242 65.9868 78.6647C65.7619 78.8053 65.5652 78.9458 65.3404 79.0582C65.1437 79.1706 64.975 79.283 64.7783 79.3955C64.7502 79.4236 64.7221 79.4236 64.694 79.4517C64.0476 79.8451 63.3731 80.2105 62.6986 80.5477C62.5018 80.6602 62.277 80.7726 62.0802 80.8569C62.0802 80.8569 62.0521 80.885 62.024 80.885C61.7992 80.9974 61.5744 81.1098 61.3495 81.2223C60.8999 81.4471 60.4221 81.6438 59.9724 81.8406C59.7476 81.953 59.4946 82.0373 59.2698 82.1216C59.045 82.2059 58.792 82.3183 58.5672 82.4026C58.3423 82.487 58.0894 82.5994 57.8646 82.6837C57.8646 82.6837 57.8646 82.6837 57.8365 82.6837C57.6116 82.768 57.3587 82.8523 57.1338 82.9366C56.628 83.1053 56.094 83.2739 55.5881 83.4425C55.4195 83.4987 55.2227 83.5549 55.0541 83.6111C54.5201 83.7798 53.9861 83.9203 53.4521 84.0327C53.2554 84.0889 53.0587 84.117 52.8338 84.1732C52.328 84.2857 51.794 84.3981 51.2881 84.5105C51.1757 84.5386 51.0914 84.5386 50.9789 84.5667C50.8103 84.5948 50.6136 84.6229 50.445 84.651C50.192 84.6791 49.9672 84.7353 49.7142 84.7634C49.6018 84.7915 49.4894 84.7915 49.377 84.8196C49.2365 84.8477 49.0678 84.8758 48.8992 84.8758C48.4495 84.9321 47.9718 84.9883 47.5221 85.0445C47.3816 85.0726 47.2129 85.0726 47.0724 85.1007H47.0443C46.8476 85.1288 46.6508 85.1288 46.4541 85.1569C46.2574 85.185 46.0606 85.185 45.8639 85.185C45.7515 85.185 45.611 85.2131 45.4986 85.2131C45.2737 85.2131 45.077 85.2412 44.8803 85.2412C44.5992 85.2412 44.3463 85.2693 44.0652 85.2693C43.7842 85.2693 43.5312 85.2693 43.2502 85.2693C43.0535 85.2693 42.8567 85.2693 42.66 85.2693C30.7999 85.1007 20.1482 80.07 12.5319 72.0883C12.5319 72.0883 12.5319 72.0602 12.5038 72.0602C11.6606 71.3013 12.3914 67.2543 15.792 64.6968C20.0639 61.4647 30.294 59.4412 30.294 59.4412C30.294 59.4412 34.2567 58.7948 48.9554 61.8582C57.5554 63.6569 64.1038 66.2706 67.7574 73.353C68.5162 74.8144 69.275 77.0628 66.6051 78.2432Z" fill="white"/>
<path d="M49.0404 61.5492C54.4365 62.6453 60.1979 63.8257 64.6385 67.395C66.128 68.6035 67.1117 70.374 67.9267 72.0884C68.3202 72.9316 68.7136 73.8028 69.0228 74.7303C69.1914 75.3486 69.4444 76.0512 69.3038 76.7819C69.2757 76.9786 69.1071 77.2316 68.9666 77.3721C68.3202 78.0185 67.6176 78.4119 66.9149 78.9178C62.7836 81.7845 58.0339 83.808 53.1156 84.876C42.1548 87.2649 30.2947 85.41 20.6548 79.6486C17.4509 77.7093 14.4999 75.3486 11.9705 72.5662C11.6895 72.2289 11.6895 71.6669 11.6895 71.3015C11.7176 70.4584 11.9424 69.6433 12.2234 68.8845C12.8979 67.142 13.7692 65.3995 15.2587 64.191C16.3267 63.4603 17.479 62.842 18.6594 62.3361C22.3692 60.7623 26.2757 59.6662 30.2947 59.2165C30.6319 59.1884 30.6881 59.6662 30.3509 59.7224C26.5006 60.5093 22.6783 61.6897 19.1091 63.2917C17.8162 63.9381 16.4391 64.5002 15.3993 65.512C14.4156 66.5799 13.713 67.9008 13.1509 69.2499C12.7855 70.0649 12.5326 71.3577 12.645 72.0041C14.4156 74.112 16.4953 75.9669 18.7437 77.5688C31.0535 86.1688 49.743 86.7309 62.8398 79.5642C64.0202 78.9178 65.1725 78.1871 66.2685 77.4283C66.8025 77.0629 67.3646 76.7538 67.7862 76.3322C67.8143 76.3041 67.7862 76.3322 67.7862 76.3603C67.7862 76.3884 67.7581 76.4165 67.7581 76.4165C67.7862 76.0793 67.6738 75.6296 67.5332 75.1799C67.0274 73.5499 66.2123 71.8355 65.3411 70.3459C63.964 68.1257 61.6313 66.7204 59.2705 65.5963C57.6404 64.8374 55.9261 64.2472 54.1836 63.6852C52.4411 63.1231 50.6705 62.6453 48.8999 62.2237C48.4502 62.1113 48.5908 61.4649 49.0404 61.5492Z" fill="#101C2D"/>
<path d="M71.7202 86.9274C69.3313 74.2522 67.7294 71.0483 66.296 69.6712C61.8836 65.4555 59.1294 64.9215 56.5438 63.9659C56.4313 63.2633 49.4895 62.4764 49.8549 61.7176L50.0797 62.645C50.1921 63.0947 50.7542 65.1744 49.883 67.8444C49.1523 70.0927 46.2013 71.1045 41.1987 68.828C31.4464 64.4156 30.3222 59.4411 30.3222 59.4411C30.1817 57.1646 21.132 61.1555 19.1366 62.1673C17.2536 63.1228 16.6353 63.4039 15.2581 64.6686C11.9418 67.6758 10.8176 77.6529 9.24376 83.0771C6.54572 92.2954 3.3418 95.6398 3.3418 95.6398H75.964C75.9359 95.6679 73.3503 95.6117 71.7202 86.9274Z" fill="#B3110C" stroke="#101C2D" stroke-width="1.13" stroke-miterlimit="10" stroke-linecap="round" stroke-linejoin="round"/>
<path d="M18.3493 63.8815C18.3493 63.8815 15.4827 69.7554 18.8552 72.341C21.2722 74.1959 26.0781 74.4488 26.0781 74.4488C26.0781 74.4488 26.4153 80.2384 31.0807 80.688C35.7461 81.1377 38.4441 77.6247 38.4441 77.6247C38.4441 77.6247 42.2663 82.7959 47.7467 82.4305C53.2271 82.0371 52.9742 75.6573 52.9742 75.6573C52.9742 75.6573 56.2905 77.3155 59.0167 76.8377C63.148 76.107 62.4735 70.2331 59.8317 68.7998C59.8317 68.7998 64.0474 69.8678 62.7546 67.5632C61.7428 65.7645 56.7683 63.1227 52.8899 62.139C50.8101 61.605 48.8147 60.8181 46.9036 59.8907C43.6434 58.2887 35.9428 56.4619 28.5794 58.4011C26.4435 58.8789 17.6467 61.2397 18.3493 63.8815Z" fill="white"/>
<path d="M18.7713 63.9095C18.7432 64.022 18.687 64.1625 18.6308 64.2749C17.7314 66.4952 16.9445 69.5023 18.6308 71.5259C19.502 72.4533 20.8511 72.9592 22.0877 73.2965C23.3805 73.6618 24.7576 73.8586 26.1066 73.971C26.3596 73.9991 26.5282 74.1677 26.5563 74.4206C26.7811 76.6128 27.7648 79.1703 30.0131 79.9573C32.9079 80.8566 36.1962 79.5638 38.1073 77.3154C38.304 77.0906 38.6694 77.0906 38.838 77.3154C39.8216 78.5801 41.1145 79.7324 42.5197 80.5474C44.5713 81.7841 47.185 82.4305 49.4334 81.5592C51.7099 80.6318 52.5811 77.9337 52.5811 75.6291C52.5811 75.3762 52.7779 75.1795 53.0308 75.1795C53.087 75.1795 53.1713 75.2076 53.2275 75.2076C54.4079 75.7697 55.7288 76.1912 57.0216 76.3599C58.3145 76.5285 59.6916 76.4442 60.5909 75.6291C62.4177 73.9429 61.6589 70.2893 59.7478 68.9403C59.4948 68.7716 59.6916 68.4063 59.9726 68.5187C60.7314 68.7435 61.5746 68.9403 62.3615 68.7997C63.4014 68.6592 62.8112 67.5912 62.3615 67.1135C61.2373 65.905 59.7759 65.0899 58.3145 64.303C57.3308 63.7971 56.3752 63.235 55.3073 62.8978C53.1994 62.1389 50.8948 62.1671 48.8151 61.2677C47.7752 60.8742 46.7916 60.3122 45.7798 59.8906C44.7962 59.469 43.7563 59.1318 42.6883 58.8507C37.4046 57.3612 31.6432 57.2206 26.4158 59.0193C24.7014 59.5252 18.0687 61.6612 18.7713 63.9095ZM17.9563 63.8252C17.4223 61.1272 24.2798 59.1599 26.2752 58.5135C32.6831 56.4056 39.8216 56.5742 46.1171 58.9912C48.1406 59.8906 50.1079 60.8742 52.2439 61.4363C55.504 62.2795 58.7641 63.3755 61.4341 65.5396C62.1086 66.1017 62.8112 66.6919 63.1765 67.535C63.7667 68.884 62.6988 69.3337 61.5184 69.2213C60.9282 69.1932 60.3942 69.1089 59.804 68.9965L60.0007 68.4625C62.0524 69.5023 62.7831 72.1442 62.2491 74.2801C61.3779 77.737 57.5556 77.6527 54.7733 76.7533C54.0988 76.5285 53.4524 76.3037 52.7779 75.9945L53.3962 75.601C53.4243 78.271 52.3563 81.3063 49.7145 82.4024C45.3301 84.0324 40.721 81.2501 38.0511 77.8775H38.7537C36.5896 80.4631 32.9079 81.8684 29.6478 80.8285C27.0341 79.901 25.7975 77.0625 25.5726 74.4488L25.9942 74.8703C23.3243 74.6174 19.8674 74.0834 17.9282 72.088C16.8883 70.9357 16.6354 69.3056 16.7759 67.8442C16.9164 66.4108 17.3099 65.0337 17.9001 63.7128V63.6847C17.9001 63.6847 17.9001 63.6566 17.9001 63.7128C17.9563 63.769 17.9563 63.7971 17.9563 63.8252Z" fill="#101C2D"/>
<path d="M25.2922 67.2539C25.2922 67.2539 19.2216 67.4225 21.2171 70.2049C23.1844 72.9591 25.2922 67.2539 25.2922 67.2539Z" fill="#101C2D"/>
<path d="M33.1888 73.0435C33.1888 73.0435 28.1581 76.2474 31.2215 77.5683C34.2849 78.8892 33.1888 73.0435 33.1888 73.0435Z" fill="#101C2D"/>
<path d="M47.2403 74.9263C47.2403 74.9263 45.1606 80.2942 48.3083 79.5635C51.456 78.8328 47.2403 74.9263 47.2403 74.9263Z" fill="#101C2D"/>
<path d="M54.9141 70.5986C54.9141 70.5986 55.7291 75.3202 57.6683 73.4653C59.6075 71.6104 54.9141 70.5986 54.9141 70.5986Z" fill="#101C2D"/>
<path d="M56.4023 64.4155C56.4023 64.4155 58.5102 67.7319 59.4095 66.3266C60.3089 64.9214 56.4023 64.4155 56.4023 64.4155Z" fill="#101C2D"/>
<path d="M51.6803 69.0252C51.0901 71.9199 47.2679 73.6624 40.832 71.0487C34.1431 68.3507 31.2483 61.9147 30.5176 60.0036C34.4803 52.584 31.7261 47.4409 31.7261 47.4409C40.8601 46.6539 48.8418 57.3337 48.8418 57.3337L50.0784 62.6173C50.1908 63.067 50.4156 63.4605 50.7529 63.7415C51.3431 64.7814 52.0457 67.1703 51.6803 69.0252Z" fill="white"/>
<path d="M30.378 60.0878C30.912 59.2728 31.2492 58.3173 31.4741 57.3898C31.8956 55.4506 32.0362 53.4833 32.0643 51.516V50.7852C31.98 50.0545 31.727 49.2957 31.446 48.6212C31.0806 47.7218 32.4015 47.1597 32.8231 48.0591C32.8793 48.1715 32.8793 48.3682 32.8793 48.4807C32.9636 52.3029 33.1322 57.2212 30.7152 60.397C30.5466 60.5656 30.2094 60.3127 30.378 60.0878Z" fill="#101C2D"/>
<path d="M49.1515 57.2777C49.573 57.5307 49.7136 57.8679 49.7698 58.2052C49.9384 58.8797 49.8822 59.6104 50.0508 60.313C50.1913 60.9875 50.6129 61.6339 50.7253 62.3365C50.8659 63.0673 51.2874 64.613 51.4561 65.3718C51.5123 65.5405 51.3998 65.7372 51.2031 65.7653C51.0907 65.7934 51.0064 65.7653 50.9221 65.7091C50.5567 65.3999 50.3881 65.0908 50.1632 64.6973C49.7979 64.0228 49.5449 63.4045 49.3201 62.6457C49.1234 61.9712 49.2077 61.2405 49.0391 60.5379C48.8985 59.8633 48.5051 59.2169 48.3646 58.5143C48.2802 58.1771 48.2521 57.8117 48.5051 57.3901C48.6737 57.2215 48.9547 57.1653 49.1515 57.2777Z" fill="#101C2D"/>
<path d="M51.1746 64.6969C45.8066 64.4159 41.4223 62.7296 37.1504 55.1133C40.7478 58.2891 44.9916 59.4976 49.4602 60.0597L50.0504 62.6453C50.1628 63.095 50.8373 64.4159 51.1746 64.6969Z" fill="#101C2D"/>
<path d="M50.951 63.6572C51.9066 65.4559 52.4687 67.7043 51.8785 69.6997C51.4288 71.1049 50.136 72.1448 48.7308 72.5383C45.4706 73.4095 41.7046 72.0324 38.8098 70.4866C35.2406 68.4912 32.5987 65.1467 30.9125 61.4932C30.8 61.2121 31.1935 60.9873 31.3621 61.2683C31.9523 62.4487 32.6268 63.601 33.3857 64.6409C34.1445 65.7088 35.0157 66.6925 35.9994 67.5637C38.8661 70.1494 42.7445 71.7513 46.6229 71.7513C50.6138 71.6389 52.1314 69.5311 51.204 65.6526C51.0634 65.0343 50.8386 64.3879 50.5295 63.8539C50.3608 63.6291 50.7824 63.3762 50.951 63.6572Z" fill="#101C2D"/>
<path d="M61.8286 29.9036C62.3345 32.2643 61.9411 33.8382 61.7162 40.3585C61.4914 46.7663 59.6365 55.816 57.36 58.0924C55.6175 59.8068 50.0247 61.1558 45.0502 59.8911C42.5208 59.2447 40.3849 57.7833 38.6424 56.7434C36.4502 55.4225 34.5391 51.3473 32.9653 48.7336C31.7286 46.682 31.8411 49.1552 30.2391 47.3846C28.0188 44.9676 25.3489 40.1055 26.6698 31.5055C28.8058 17.5656 39.8509 15.9356 48.0293 17.4813C56.2639 19.0271 60.4796 23.6924 61.8286 29.9036Z" fill="white"/>
<path d="M31.6436 49.8577C30.9972 48.7897 30.1541 47.8342 29.3953 46.8224C28.2711 45.2767 27.4279 43.5061 26.8658 41.6793C24.4207 33.8662 25.9103 23.6361 33.3018 19.027C40.0188 14.7551 53.0593 16.3008 58.5116 22.1466C60.5632 24.2544 61.8841 27.0087 62.4462 29.8754C62.4743 30.044 62.5587 30.3531 62.5868 30.5218C62.6149 30.6623 62.6992 30.8309 62.6711 30.9995C62.6149 31.6178 62.5024 32.2361 62.4462 32.8544C62.0247 36.5923 62.1371 40.4146 61.6593 44.1525C61.2377 48.0871 60.6756 52.0218 59.4953 55.8159C59.1299 56.9682 58.4273 58.008 57.4998 58.7669C55.4201 60.5093 52.6939 61.0995 50.0802 61.212C44.8528 61.4649 39.541 59.61 36.5057 55.1976C36.3933 55.0289 36.6181 54.8322 36.7587 55.0008C39.2881 57.727 42.7168 59.4695 46.3704 59.8629C50.4175 60.3407 56.5162 59.9753 58.2868 55.6472C60.3384 49.5205 61.4064 43.0283 61.5188 36.5923C61.5188 35.0185 61.4345 33.4446 61.4345 31.8427C61.4345 31.6459 61.4626 31.1963 61.4626 30.9995C61.4626 30.9714 61.4626 30.9995 61.4626 30.9995C61.4626 31.0276 61.4626 31.0276 61.4626 30.9995C61.2377 30.4374 61.1534 29.8191 60.9848 29.2571C60.3665 26.9244 59.2423 24.7041 57.6404 22.9335C52.3286 16.9754 40.4966 15.4858 33.8639 19.9544C28.6083 23.4394 27.2031 30.1283 26.8377 36.0303C26.5286 40.4427 27.8214 44.7708 31.1658 47.8061L32.4868 49.1832C33.0488 49.8015 32.0933 50.5322 31.6436 49.8577Z" fill="#101C2D"/>
<path d="M34.9606 40.9204C34.9606 40.9204 34.0894 36.7047 29.9861 37.2106C26.4449 37.6603 25.2083 46.1479 33.2462 48.5086" fill="white"/>
<path d="M32.8806 44.8271C32.2342 44.4618 31.7845 43.8435 31.7564 43.0846C31.7845 42.5226 31.8688 41.8761 31.7283 41.3141C31.644 40.7801 31.0819 40.6395 30.6603 40.6676C30.2106 40.752 29.9296 41.3141 29.8453 41.7637C29.8453 41.7918 29.8172 41.8761 29.8172 41.9043C29.7891 42.0448 29.5642 42.0448 29.508 41.9043C29.1427 40.8082 29.9577 39.5997 31.1381 39.7402C32.7963 39.8526 33.0211 41.5951 32.712 42.916C32.5433 43.4781 32.7682 43.984 33.0773 44.4618L33.1335 44.5461C33.274 44.7147 33.0492 44.9395 32.8806 44.8271Z" fill="#101C2D"/>
<path d="M55.3643 37.9413C55.7858 39.9368 56.5728 41.7917 57.5564 43.5341C58.4277 45.6701 56.1793 47.6936 54.1839 47.6093C53.959 47.6093 53.9309 47.3002 54.1277 47.2439C55.3924 46.8505 56.5446 46.0073 56.7414 44.7145C56.8257 44.3211 56.7133 43.9838 56.5165 43.6466C55.5891 41.9041 55.027 39.9086 55.1675 37.9413C55.1675 37.8008 55.3643 37.8008 55.3643 37.9413Z" fill="#101C2D"/>
<path d="M34.8196 40.9488C34.1731 39.2906 32.7679 37.7168 30.8849 37.7449C30.7163 37.7168 30.4352 37.773 30.2666 37.773C29.7888 37.8011 29.3954 37.9697 29.03 38.307C27.2313 40.1057 27.5405 43.2815 29.0019 45.2769C29.5078 45.9795 30.1542 46.5978 30.8849 47.1037C31.6156 47.6096 32.4307 48.003 33.3019 48.3403C33.4986 48.3965 33.4143 48.7057 33.2176 48.6775C31.3346 48.2841 29.5359 47.3566 28.2993 45.8109C26.3882 43.5063 25.9947 39.656 28.2712 37.4076C28.7771 36.9579 29.4797 36.6207 30.1823 36.6207C30.4071 36.6207 30.7444 36.5645 30.9692 36.6207C32.1496 36.6769 33.2738 37.2671 34.0045 38.1945C34.6509 38.9815 35.0163 39.937 35.1287 40.8926C35.1287 41.0612 34.8758 41.1174 34.8196 40.9488Z" fill="#101C2D"/>
<path d="M53.2278 50.4198C51.4291 52.1342 48.0285 50.7571 47.1291 48.6773C47.0167 48.4244 47.2977 48.1995 47.5226 48.312C48.0003 48.5649 48.4219 48.8178 48.8716 49.0146C50.1644 49.6048 51.5134 50.0825 52.9468 49.942C53.2278 49.8858 53.4245 50.2231 53.2278 50.4198Z" fill="#101C2D"/>
<path d="M44.8804 40.808C44.2059 40.7799 43.7 40.2178 43.7562 39.5433L43.7843 38.7564C43.8124 38.0819 44.3745 37.576 45.049 37.6322C45.7235 37.6603 46.2294 38.2224 46.1732 38.8969L46.1451 39.6838C46.117 40.3302 45.5549 40.8361 44.8804 40.808Z" fill="#101C2D"/>
<path d="M56.7117 41.2298C56.0934 41.2017 55.6157 40.6677 55.6438 40.0494L55.6719 39.3187C55.7 38.7004 56.234 38.2226 56.8523 38.2507C57.4706 38.2788 57.9483 38.8128 57.9202 39.4311L57.8921 40.1618C57.864 40.7801 57.33 41.2579 56.7117 41.2298Z" fill="#101C2D"/>
<path d="M47.4094 39.2902C46.4819 38.6719 45.4702 38.2504 44.346 38.4752C43.9806 38.5314 43.6153 38.6438 43.3904 38.8968C43.3061 39.0092 43.1094 38.9811 43.1094 38.8124C43.1375 38.2504 43.6153 37.885 44.0649 37.6602C44.9362 37.2105 46.1447 37.2948 46.9316 37.885C47.2126 38.0536 48.1682 39.0935 47.6623 39.3183C47.5499 39.3745 47.4937 39.3464 47.4094 39.2902Z" fill="#101C2D"/>
<path d="M55.4473 39.4311C55.4473 38.2507 56.9087 37.8292 57.8081 38.2507C58.3139 38.4756 58.6793 38.9252 58.8198 39.4592C58.876 39.6279 58.6231 39.7684 58.5107 39.6279C58.0329 39.0658 57.2179 38.7847 56.5714 39.122C56.3747 39.2344 56.3466 39.3187 56.2904 39.4311C56.2904 39.9932 55.4754 39.9651 55.4473 39.4311Z" fill="#101C2D"/>
<path d="M48.7583 34.6532C49.3485 34.8499 49.9387 34.3159 49.8262 33.6695C49.77 33.3323 49.6295 32.995 49.3485 32.7421C48.5053 31.9832 45.0204 31.3087 42.9125 32.2924C41.0576 33.1917 46.0602 33.7538 48.7583 34.6532Z" fill="#101C2D"/>
<path d="M57.1625 35.103C56.6847 35.2716 56.1789 34.7658 56.2632 34.1756C56.2913 33.8664 56.4037 33.5573 56.6285 33.3324C57.303 32.6579 59.6076 32.1239 61.0691 33.1638C62.3338 34.035 59.3547 34.288 57.1625 35.103Z" fill="#101C2D"/>
<path d="M65.3413 54.7198C62.0812 46.4008 62.5027 43.7871 63.2897 36.789C64.8635 23.0178 59.889 19.6734 57.2753 18.3524C46.1459 12.7034 33.3864 15.4577 28.5805 23.2145C25.5733 28.0485 25.4609 31.9269 23.7746 37.4917C20.8799 47.0191 13.9099 51.2348 16.074 60.9871C19.0531 70.5988 38.108 74.8426 37.7426 64.8374C37.5178 58.7949 32.9929 57.9799 32.9086 49.6328C32.9086 49.0707 32.9367 48.5367 32.9929 48.0309C25.2361 45.5858 26.4727 37.2668 29.9858 36.8171C32.4308 36.508 33.7237 37.8851 34.3701 39.0374C34.4263 39.206 34.5106 39.3466 34.5949 39.5152C35.157 40.4707 41.7897 38.672 46.8485 35.5524C49.7995 33.7256 54.4086 30.5779 55.6733 27.1211C55.7295 26.9805 56.6289 31.3086 60.8446 36.9296C60.6478 40.274 61.491 48.6211 57.2191 55.5067C54.1276 60.5374 50.2491 60.9871 50.2491 60.9871C50.2491 64.3315 56.1792 64.1629 58.6524 64.725C61.7439 65.3995 64.8073 67.2544 64.8073 67.2544C64.8073 67.2544 68.3485 62.3923 65.3413 54.7198Z" fill="#101C2D"/>
<path d="M81.2476 23.6922C98.307 56.5465 68.3195 93.6164 32.5704 84.5667C16.5227 80.5759 3.62272 66.6641 0.952789 50.3354C-2.08251 34.0909 5.25279 16.638 18.9678 7.44779C37.7698 -5.48032 63.8227 -1.18032 77.2848 17.3125C77.3691 17.3968 77.341 17.5373 77.2286 17.6216C77.1443 17.706 77.0038 17.6779 76.9195 17.5654C75.0646 15.1765 72.9567 13.0125 70.6521 11.0733C66.858 7.84125 62.4175 5.31184 57.724 3.59746C33.8351 -5.05875 7.61357 9.33079 2.38612 34.3158C-3.51584 62.3079 20.2887 88.0798 48.6744 84.2295C70.5678 81.4752 86.8404 61.2681 85.0417 39.2903C84.6482 33.9785 83.243 28.723 80.9103 23.889C80.8541 23.8047 80.9103 23.6922 80.9946 23.636C81.0789 23.5798 81.1914 23.6079 81.2476 23.6922Z" fill="#101C2D"/>
</g>
</svg>
