<svg width="87" height="86" viewBox="0 0 87 86" fill="none" xmlns="http://www.w3.org/2000/svg">
<mask id="mask0_100_3684" style="mask-type:alpha" maskUnits="userSpaceOnUse" x="0" y="0" width="86" height="86">
<circle cx="43.109" cy="42.859" r="42.859" fill="#D9D9D9"/>
</mask>
<g mask="url(#mask0_100_3684)">
<path d="M66.6051 78.2432C66.4084 78.3837 66.1835 78.5242 65.9868 78.6647C65.7619 78.8053 65.5652 78.9458 65.3404 79.0582C65.1437 79.1706 64.975 79.283 64.7783 79.3955C64.7502 79.4236 64.7221 79.4236 64.694 79.4517C64.0476 79.8451 63.3731 80.2105 62.6986 80.5477C62.5018 80.6602 62.277 80.7726 62.0802 80.8569C62.0802 80.8569 62.0521 80.885 62.024 80.885C61.7992 80.9974 61.5744 81.1098 61.3495 81.2223C60.8999 81.4471 60.4221 81.6438 59.9724 81.8406C59.7476 81.953 59.4946 82.0373 59.2698 82.1216C59.045 82.2059 58.792 82.3183 58.5672 82.4026C58.3423 82.487 58.0894 82.5994 57.8646 82.6837C57.8646 82.6837 57.8646 82.6837 57.8365 82.6837C57.6116 82.768 57.3587 82.8523 57.1338 82.9366C56.628 83.1053 56.094 83.2739 55.5881 83.4425C55.4195 83.4987 55.2227 83.5549 55.0541 83.6111C54.5201 83.7798 53.9861 83.9203 53.4521 84.0327C53.2554 84.0889 53.0587 84.117 52.8338 84.1732C52.328 84.2857 51.794 84.3981 51.2881 84.5105C51.1757 84.5386 51.0914 84.5386 50.9789 84.5667C50.8103 84.5948 50.6136 84.6229 50.445 84.651C50.192 84.6791 49.9672 84.7353 49.7142 84.7634C49.6018 84.7915 49.4894 84.7915 49.377 84.8196C49.2365 84.8477 49.0678 84.8758 48.8992 84.8758C48.4495 84.9321 47.9718 84.9883 47.5221 85.0445C47.3816 85.0726 47.2129 85.0726 47.0724 85.1007H47.0443C46.8476 85.1288 46.6508 85.1288 46.4541 85.1569C46.2574 85.185 46.0606 85.185 45.8639 85.185C45.7515 85.185 45.611 85.2131 45.4986 85.2131C45.2737 85.2131 45.077 85.2412 44.8803 85.2412C44.5992 85.2412 44.3463 85.2693 44.0652 85.2693C43.7842 85.2693 43.5312 85.2693 43.2502 85.2693C43.0535 85.2693 42.8567 85.2693 42.66 85.2693C30.7999 85.1007 20.1482 80.07 12.5319 72.0883C12.5319 72.0883 12.5319 72.0602 12.5038 72.0602C11.6606 71.3013 12.3914 67.2543 15.792 64.6968C20.0639 61.4647 30.294 59.4412 30.294 59.4412C30.294 59.4412 34.2567 58.7948 48.9554 61.8582C57.5554 63.6569 64.1038 66.2706 67.7574 73.353C68.5162 74.8144 69.275 77.0628 66.6051 78.2432Z" fill="white"/>
<path d="M49.0404 61.5492C54.4365 62.6453 60.1979 63.8257 64.6385 67.395C66.128 68.6035 67.1117 70.374 67.9267 72.0884C68.3202 72.9316 68.7136 73.8028 69.0228 74.7303C69.1914 75.3486 69.4444 76.0512 69.3038 76.7819C69.2757 76.9786 69.1071 77.2316 68.9666 77.3721C68.3202 78.0185 67.6176 78.4119 66.9149 78.9178C62.7836 81.7845 58.0339 83.808 53.1156 84.876C42.1548 87.2649 30.2947 85.41 20.6548 79.6486C17.4509 77.7093 14.4999 75.3486 11.9705 72.5662C11.6895 72.2289 11.6895 71.6669 11.6895 71.3015C11.7176 70.4584 11.9424 69.6433 12.2234 68.8845C12.8979 67.142 13.7692 65.3995 15.2587 64.191C16.3267 63.4603 17.479 62.842 18.6594 62.3361C22.3692 60.7623 26.2757 59.6662 30.2947 59.2165C30.6319 59.1884 30.6881 59.6662 30.3509 59.7224C26.5006 60.5093 22.6783 61.6897 19.1091 63.2917C17.8162 63.9381 16.4391 64.5002 15.3993 65.512C14.4156 66.5799 13.713 67.9008 13.1509 69.2499C12.7855 70.0649 12.5326 71.3577 12.645 72.0041C14.4156 74.112 16.4953 75.9669 18.7437 77.5688C31.0535 86.1688 49.743 86.7309 62.8398 79.5642C64.0202 78.9178 65.1725 78.1871 66.2685 77.4283C66.8025 77.0629 67.3646 76.7538 67.7862 76.3322C67.8143 76.3041 67.7862 76.3322 67.7862 76.3603C67.7862 76.3884 67.7581 76.4165 67.7581 76.4165C67.7862 76.0793 67.6738 75.6296 67.5332 75.1799C67.0274 73.5499 66.2123 71.8355 65.3411 70.3459C63.964 68.1257 61.6313 66.7204 59.2705 65.5963C57.6404 64.8374 55.9261 64.2472 54.1836 63.6852C52.4411 63.1231 50.6705 62.6453 48.8999 62.2237C48.4502 62.1113 48.5908 61.4649 49.0404 61.5492Z" fill="#101C2D"/>
<path d="M75.9358 95.6681H4.85938C4.85938 95.6681 9.04696 86.8433 10.9019 76.7818C12.1947 69.8119 13.1502 65.7367 16.7757 63.4884C19.3332 61.9145 24.8136 60.2845 27.1744 59.4413C28.7764 58.8792 29.1136 59.357 30.2659 59.0479C30.2659 59.1884 30.294 59.3008 30.294 59.4413C30.294 59.4413 33.3293 68.4629 41.2267 71.6668C47.6626 74.2805 51.4849 72.538 52.0751 69.6433C52.4404 67.7884 51.2881 64.7531 50.6979 63.7694C50.3607 63.4884 50.1359 63.0668 50.0234 62.6452L49.7986 61.7178C50.3326 61.6054 50.8385 61.4648 51.3443 61.2962C51.513 61.24 51.6535 61.1838 51.8221 61.1276C55.0542 61.9707 61.9679 64.6969 65.0313 67.5073C66.2398 68.6315 69.1064 74.2524 70.9613 82.4028C73.0973 91.6492 75.9358 95.6681 75.9358 95.6681Z" fill="#177E32"/>
<path d="M76.5828 96.0051C55.42 96.1456 25.7135 96.4828 4.88798 96.3985C4.3821 96.3985 4.01674 95.8364 4.24157 95.3867C6.74288 89.8783 8.7102 84.0044 9.97491 78.0743C10.1154 77.3155 10.4246 75.826 10.5651 75.0671C11.2115 71.9756 11.7174 68.9122 13.3756 66.0737C13.9377 65.1462 14.6684 64.275 15.5396 63.5724C16.3827 62.8979 17.3664 62.392 18.3501 61.9423C21.4978 60.5933 24.6736 59.5253 27.9056 58.5417C28.6644 58.373 29.4233 58.5698 30.154 58.4011C30.5756 58.2887 31.0252 58.5979 31.0533 59.0475L31.0814 59.441L30.3226 58.7384C30.6318 58.7384 30.9128 58.9351 30.9971 59.2162C31.222 59.8626 31.5311 60.5371 31.8403 61.1835C32.7958 63.1227 33.9762 64.9495 35.4095 66.5515C37.2926 68.6874 39.6533 70.3737 42.3514 71.3292C45.0775 72.341 49.9396 73.2122 51.2886 69.9521C51.5135 69.3619 51.4854 68.7436 51.4011 68.0972C51.2043 66.7763 50.7546 65.3711 50.1082 64.1907L50.2488 64.3593C49.7991 63.7691 49.6305 63.0665 49.6867 62.392V61.8018V61.7175C49.6867 61.6613 49.7429 61.605 49.7991 61.605C50.1363 61.4926 50.4455 61.3521 50.7828 61.2397C51.0919 61.0992 51.4011 60.9586 51.7102 60.79C51.7945 60.7338 51.8788 60.7619 51.9631 60.79C53.818 61.2678 55.5886 61.9142 57.3592 62.6449C60.0011 63.741 62.6148 64.9776 64.8913 66.7482C65.7063 67.3384 66.2965 68.2096 66.7743 69.0809C67.7298 70.7671 68.4886 72.5096 69.1631 74.2802C70.3435 77.3717 71.2148 80.5756 71.9736 83.8077C72.9292 87.3769 74.0814 90.9181 75.852 94.1783C76.0488 94.5155 76.2455 94.8528 76.4422 95.19L76.4984 95.2462V95.2743C76.6671 95.4149 76.6952 95.8083 76.5828 96.0051ZM75.2899 95.3305C75.1494 95.4711 75.1775 95.8645 75.2899 96.0051V95.9769L75.2337 95.8926C73.2664 92.6606 72.0298 89.0351 71.0181 85.4096C70.5122 83.639 70.1468 81.7279 69.6409 79.9292C68.6573 76.3881 67.4488 72.8188 65.6782 69.5868C65.369 69.0528 65.0318 68.4626 64.6102 68.041C63.7952 67.2822 62.8396 66.6639 61.8841 66.0737C60.3102 65.1462 58.6239 64.3312 56.9095 63.6286C55.1952 62.926 53.4527 62.2796 51.6821 61.8018L52.1037 61.7737C51.3448 61.8299 50.6141 61.858 49.8834 61.8299L49.9958 61.6613C50.1645 61.9423 50.3612 62.4201 50.5298 62.673C50.7265 62.926 50.9514 63.1227 51.2043 63.2351C51.2605 63.2913 51.3167 63.3475 51.3448 63.4037C52.3566 65.343 53.3684 68.2377 52.6377 70.4018C50.9514 74.6456 45.3024 73.9711 41.8455 72.6501C38.9507 71.6665 36.337 69.7835 34.3135 67.4789C32.2899 65.1743 30.688 62.5325 29.62 59.6658L30.2945 60.1436C29.9011 60.1436 29.5919 59.8626 29.5638 59.4691L29.5357 59.1037L30.435 59.7501C30.154 59.8345 29.8167 59.8626 29.5076 59.8907C28.7207 59.8626 28.1867 59.8345 27.456 60.1155C26.5004 60.4528 25.5167 60.79 24.5331 61.0992C22.5939 61.7456 20.6827 62.4201 18.856 63.2351C14.6965 64.8933 13.488 68.2096 12.5324 72.341C12.0827 74.2521 11.7174 76.4162 11.3239 78.3554C10.0311 84.426 8.0638 90.2998 5.50628 95.9769L4.85987 94.9371C25.2357 94.9371 54.6331 95.1338 75.2899 95.3305Z" fill="#101C2D"/>
<path d="M38.8099 74.6175C29.1138 70.2613 25.3478 62.4763 26.0785 60.3685C26.0785 60.3685 26.0785 60.3404 26.1066 60.3122C26.6125 59.2724 27.4276 58.4292 28.4393 57.839C29.0014 57.5018 29.6197 57.1926 30.1256 57.024C37.7981 55.1129 47.972 58.3449 51.4008 61.2959C52.6374 62.7854 53.9021 64.275 54.3798 68.2096C55.0544 73.8868 48.8432 79.1423 38.8099 74.6175Z" fill="white"/>
<path d="M38.6693 74.9266C33.8072 72.7344 29.2543 69.3057 26.6687 64.556C26.1628 63.5723 25.7131 62.5606 25.5726 61.4083C25.5445 61.0148 25.5164 60.5371 25.7131 60.1436C26.3033 58.9632 27.3713 58.0357 28.5517 57.4737C29.451 56.9959 30.4347 56.6586 31.4184 56.3495C32.8236 56.0965 34.2288 56.0122 35.6621 56.0403C40.3556 56.1808 45.021 57.4174 49.1805 59.5815C49.4896 59.7501 49.7987 59.9188 50.1079 60.1155C50.2203 60.1717 50.3046 60.256 50.4452 60.2279C50.5857 60.1998 50.6981 60.256 50.8105 60.3122C51.1478 60.509 51.4288 60.7619 51.738 61.0429C52.4968 61.9704 53.2556 62.954 53.7615 64.0782C54.2674 65.2024 54.5484 66.4109 54.7171 67.5913C55.1667 70.0083 54.3517 72.7063 52.4687 74.3645C48.6465 77.7933 42.9131 76.8658 38.6693 74.9266ZM38.9223 74.3364C42.07 75.7135 45.6674 76.5848 49.0118 75.5168C51.7099 74.7018 53.9301 72.2567 54.0144 69.39C54.0425 67.7037 53.6491 65.9331 52.9746 64.3874C52.6092 63.4318 51.5974 62.2233 51.0916 61.605C50.7824 61.3521 50.4452 61.1554 50.1641 60.9024C50.136 60.8462 50.1079 60.79 50.0798 60.7338C50.0236 60.5933 49.9112 60.5652 49.8269 60.4808C49.5458 60.3122 49.2367 60.1436 48.9275 59.975C46.4824 58.7103 43.7844 57.9795 41.0863 57.4455C37.9386 56.8554 34.7066 56.6867 31.5308 57.1364C31.0811 57.1926 30.6033 57.1364 30.1537 57.2488C29.8164 57.3893 29.1981 57.6704 28.8046 57.9514C27.7929 58.5416 27.034 59.4129 26.5001 60.4527L26.472 60.4808C26.472 60.5089 26.4438 60.5652 26.4438 60.5933C26.3033 61.7737 26.8654 62.9822 27.3994 64.0782C27.8772 64.9776 28.4393 65.8488 29.0857 66.692C31.6713 70.0364 35.1282 72.622 38.9223 74.3364Z" fill="#101C2D"/>
<path d="M51.6803 69.0247C51.0901 71.9195 47.2679 73.6619 40.832 71.0482C34.1431 68.3502 31.2483 61.9142 30.5176 60.0031C34.4803 52.5835 31.7261 47.4404 31.7261 47.4404C40.8601 46.6534 48.8418 57.3332 48.8418 57.3332L50.0784 62.6168C50.1908 63.0665 50.4156 63.46 50.7529 63.741C51.3431 64.7809 52.0457 67.1698 51.6803 69.0247Z" fill="white"/>
<path d="M30.378 60.0874C30.912 59.2723 31.2492 58.3168 31.4741 57.3893C31.8956 55.4501 32.0362 53.4828 32.0643 51.5155V50.7847C31.98 50.054 31.727 49.2952 31.446 48.6207C31.0806 47.7213 32.4015 47.1593 32.8231 48.0586C32.8793 48.171 32.8793 48.3678 32.8793 48.4802C32.9636 52.3024 33.1322 57.2207 30.7152 60.3965C30.5466 60.5651 30.2094 60.3122 30.378 60.0874Z" fill="#101C2D"/>
<path d="M49.1515 57.2772C49.573 57.5302 49.7136 57.8674 49.7698 58.2047C49.9384 58.8792 49.8822 59.6099 50.0508 60.3125C50.1913 60.987 50.6129 61.6334 50.7253 62.3361C50.8659 63.0668 51.2874 64.6125 51.4561 65.3714C51.5123 65.54 51.3998 65.7367 51.2031 65.7648C51.0907 65.7929 51.0064 65.7648 50.9221 65.7086C50.5567 65.3995 50.3881 65.0903 50.1632 64.6968C49.7979 64.0223 49.5449 63.404 49.3201 62.6452C49.1234 61.9707 49.2077 61.24 49.0391 60.5374C48.8985 59.8629 48.5051 59.2165 48.3646 58.5138C48.2802 58.1766 48.2521 57.8112 48.5051 57.3897C48.6737 57.221 48.9547 57.1648 49.1515 57.2772Z" fill="#101C2D"/>
<path d="M51.1746 64.6964C45.8066 64.4154 41.4223 62.7291 37.1504 55.1128C40.7478 58.2886 44.9916 59.4971 49.4602 60.0592L50.0504 62.6448C50.1628 63.0945 50.8373 64.4154 51.1746 64.6964Z" fill="#101C2D"/>
<path d="M50.951 63.6567C51.9066 65.4554 52.4687 67.7038 51.8785 69.6992C51.4288 71.1044 50.136 72.1443 48.7308 72.5378C45.4706 73.409 41.7046 72.0319 38.8098 70.4861C35.2406 68.4907 32.5987 65.1463 30.9125 61.4927C30.8 61.2116 31.1935 60.9868 31.3621 61.2678C31.9523 62.4482 32.6268 63.6005 33.3857 64.6404C34.1445 65.7084 35.0157 66.692 35.9994 67.5633C38.8661 70.1489 42.7445 71.7508 46.6229 71.7508C50.6138 71.6384 52.1314 69.5306 51.204 65.6521C51.0634 65.0338 50.8386 64.3874 50.5295 63.8534C50.3608 63.6286 50.7824 63.3757 50.951 63.6567Z" fill="#101C2D"/>
<path d="M61.8267 29.9033C62.3326 32.2641 60.6463 34.7935 60.6463 41.089C60.6463 47.5249 59.4659 54.523 54.6038 59.385C50.4162 63.5726 45.6104 63.404 39.9613 58.9916C39.1744 58.3733 36.4202 56.2935 35.7175 55.5909C34.9025 54.7759 34.4528 54.1857 34.0594 53.5674C33.7221 53.0053 33.8064 49.7452 33.3287 48.9864C32.0921 46.9347 31.8391 49.155 30.2372 47.3563C28.0169 44.9393 25.347 40.0772 26.6679 31.4772C28.8038 17.5373 39.8489 15.9073 48.0273 17.453C56.262 19.0269 60.4777 23.6922 61.8267 29.9033Z" fill="white"/>
<path d="M31.6425 49.8575C30.996 48.7895 30.181 47.8339 29.4222 46.8503C28.6634 45.8104 28.0451 44.7143 27.5392 43.5339C24.6725 36.5921 25.0941 27.5143 30.181 21.6686C33.666 17.6777 39.1745 16.3568 44.2333 16.6379C49.2921 16.947 54.5477 18.2398 58.2856 21.8934C60.4496 24.0012 61.8268 26.8117 62.4451 29.7346C62.6418 30.662 62.5013 31.6738 62.2764 32.545C61.63 34.9901 61.0117 37.3228 60.9555 39.8522C60.9836 43.6182 60.8712 47.4686 59.7751 51.0941C58.9882 53.5111 58.0607 55.928 56.5993 58.0359C55.0817 60.1718 52.8052 61.8862 50.1915 62.3921C44.9359 63.4601 40.0176 60.1437 36.5326 56.5463C36.3921 56.3777 36.5889 56.181 36.7575 56.2934C38.7529 57.8111 40.8045 59.2163 43.0248 60.1718C49.4326 63.1228 54.7444 60.3967 57.5549 54.2137C59.9156 49.7169 60.5902 44.8548 60.3934 39.8241C60.3934 38.5594 60.4496 37.2947 60.6183 36.03C60.7869 34.2032 61.4052 32.3764 61.3771 30.5777C60.8993 27.6548 59.5503 24.8444 57.5268 22.6803C52.7209 17.5934 43.5026 16.1039 37.0385 18.4084C29.4222 21.1065 27.3706 28.779 26.949 36.1143C26.6679 40.4986 27.9608 44.7986 31.2771 47.8058L32.598 49.1829C33.0477 49.8013 32.0921 50.532 31.6425 49.8575Z" fill="#101C2D"/>
<path d="M34.9586 40.9204C34.9586 40.9204 34.0874 36.7047 29.9841 37.2106C26.443 37.6603 25.2064 46.1479 33.2443 48.5086" fill="white"/>
<path d="M32.8786 44.8266C32.2322 44.4613 31.7825 43.843 31.7544 43.0842C31.7825 42.5221 31.8669 41.8757 31.7263 41.3136C31.642 40.7796 31.0799 40.6391 30.6584 40.6672C30.2087 40.7515 29.9276 41.3136 29.8433 41.7632C29.8433 41.7913 29.8152 41.8757 29.8152 41.9038C29.7871 42.0443 29.5623 42.0443 29.5061 41.9038C29.1407 40.8077 29.9558 39.5992 31.1361 39.7397C32.7943 39.8521 33.0191 41.5946 32.71 42.9155C32.5414 43.4776 32.7662 43.9835 33.0754 44.4613L33.1316 44.5456C33.2721 44.7142 33.0473 44.9391 32.8786 44.8266Z" fill="#101C2D"/>
<path d="M55.3623 37.9413C55.7839 39.9368 56.5708 41.7917 57.5545 43.5341C58.4257 45.6701 56.1773 47.6936 54.1819 47.6093C53.9571 47.6093 53.929 47.3002 54.1257 47.2439C55.3904 46.8505 56.5427 46.0073 56.7394 44.7145C56.8237 44.3211 56.7113 43.9838 56.5146 43.6466C55.5871 41.9041 55.025 39.9086 55.1656 37.9413C55.1656 37.8008 55.3623 37.8008 55.3623 37.9413Z" fill="#101C2D"/>
<path d="M34.8176 40.9483C34.1712 39.2901 32.766 37.7163 30.883 37.7444C30.7143 37.7163 30.4333 37.7725 30.2647 37.7725C29.7869 37.8006 29.3934 37.9692 29.0281 38.3065C27.2294 40.1052 27.5385 43.281 29 45.2764C29.5058 45.979 30.1522 46.5973 30.883 47.1032C31.6137 47.6091 32.4287 48.0025 33.3 48.3398C33.4967 48.396 33.4124 48.7052 33.2156 48.6771C31.3326 48.2836 29.5339 47.3561 28.2973 45.8104C26.3862 43.5058 25.9928 39.6555 28.2692 37.4071C28.7751 36.9575 29.4777 36.6202 30.1803 36.6202C30.4052 36.6202 30.7424 36.564 30.9673 36.6202C32.1477 36.6764 33.2718 37.2666 34.0026 38.1941C34.649 38.981 35.0143 39.9365 35.1268 40.8921C35.1268 41.0607 34.8738 41.1169 34.8176 40.9483Z" fill="#101C2D"/>
<path d="M53.2278 50.4198C51.4291 52.1342 48.0285 50.7571 47.1291 48.6773C47.0167 48.4244 47.2977 48.1995 47.5226 48.312C48.0003 48.5649 48.4219 48.8178 48.8716 49.0146C50.1644 49.6048 51.5134 50.0825 52.9468 49.942C53.2278 49.8858 53.4245 50.2231 53.2278 50.4198Z" fill="#101C2D"/>
<path d="M44.8804 40.808C44.2059 40.7799 43.7 40.2178 43.7562 39.5433L43.7843 38.7564C43.8124 38.0819 44.3745 37.576 45.049 37.6322C45.7235 37.6603 46.2294 38.2224 46.1732 38.8969L46.1451 39.6838C46.117 40.3302 45.5549 40.8361 44.8804 40.808Z" fill="#101C2D"/>
<path d="M56.7117 41.2298C56.0934 41.2017 55.6157 40.6677 55.6438 40.0494L55.6719 39.3187C55.7 38.7004 56.234 38.2226 56.8523 38.2507C57.4706 38.2788 57.9483 38.8128 57.9202 39.4311L57.8921 40.1618C57.864 40.7801 57.33 41.2579 56.7117 41.2298Z" fill="#101C2D"/>
<path d="M47.4094 39.2902C46.4819 38.6719 45.4702 38.2504 44.346 38.4752C43.9806 38.5314 43.6153 38.6438 43.3904 38.8968C43.3061 39.0092 43.1094 38.9811 43.1094 38.8124C43.1375 38.2504 43.6153 37.885 44.0649 37.6602C44.9362 37.2105 46.1447 37.2948 46.9316 37.885C47.2126 38.0536 48.1682 39.0935 47.6623 39.3183C47.5499 39.3745 47.4937 39.3464 47.4094 39.2902Z" fill="#101C2D"/>
<path d="M55.4473 39.4311C55.4473 38.2507 56.9087 37.8292 57.8081 38.2507C58.3139 38.4756 58.6793 38.9252 58.8198 39.4592C58.876 39.6279 58.6231 39.7684 58.5107 39.6279C58.0329 39.0658 57.2179 38.7847 56.5714 39.122C56.3747 39.2344 56.3466 39.3187 56.2904 39.4311C56.2904 39.9932 55.4754 39.9651 55.4473 39.4311Z" fill="#101C2D"/>
<path d="M48.7583 34.6532C49.3485 34.8499 49.9387 34.3159 49.8262 33.6695C49.77 33.3323 49.6295 32.995 49.3485 32.7421C48.5053 31.9832 45.0204 31.3087 42.9125 32.2924C41.0576 33.1917 46.0602 33.7538 48.7583 34.6532Z" fill="#101C2D"/>
<path d="M57.1625 35.103C56.6847 35.2716 56.1789 34.7658 56.2632 34.1756C56.2913 33.8664 56.4037 33.5573 56.6285 33.3324C57.303 32.6579 59.6076 32.1239 61.0691 33.1638C62.3338 34.035 59.3547 34.288 57.1625 35.103Z" fill="#101C2D"/>
<path d="M63.9634 23.2142C65.9588 15.9913 57.8647 11.4665 55.7007 14.7266C54.1268 17.0874 48.0562 15.2606 38.8379 15.092C29.6196 14.8952 27.1464 19.7854 27.034 25.041C27.034 25.041 22.987 27.1769 23.2399 34.709C23.4928 42.522 31.5307 48.8175 32.5144 52.7802C32.5144 52.7802 32.6268 53.2861 31.5589 47.8619C25.4321 44.9109 26.7249 37.6318 30.0131 37.2103C32.5144 36.9011 33.8353 38.3626 34.4536 39.5429C34.7066 39.8802 37.0955 42.8031 37.1517 33.2475C37.1798 26.7273 43.5314 24.5913 50.7543 27.2331C54.5203 28.6103 58.483 29.622 61.2092 27.6547C61.6588 28.9475 62.1366 30.3809 61.7713 32.1233C62.8673 31.1116 63.7948 29.622 64.0477 27.7952C64.2164 26.6992 63.9353 25.7436 63.317 24.9005C63.57 24.4227 63.7948 23.8325 63.9634 23.2142Z" fill="#101C2D"/>
<path d="M81.2476 23.6922C98.307 56.5465 68.3195 93.6164 32.5704 84.5667C16.5227 80.5759 3.62272 66.6641 0.952789 50.3354C-2.08251 34.0909 5.25279 16.638 18.9678 7.44779C37.7698 -5.48032 63.8227 -1.18032 77.2848 17.3125C77.3691 17.3968 77.341 17.5373 77.2286 17.6216C77.1443 17.706 77.0038 17.6779 76.9195 17.5654C75.0646 15.1765 72.9567 13.0125 70.6521 11.0733C66.858 7.84125 62.4175 5.31184 57.724 3.59746C33.8351 -5.05875 7.61357 9.33079 2.38612 34.3158C-3.51584 62.3079 20.2887 88.0798 48.6744 84.2295C70.5678 81.4752 86.8404 61.2681 85.0417 39.2903C84.6482 33.9785 83.243 28.723 80.9103 23.889C80.8541 23.8047 80.9103 23.6922 80.9946 23.636C81.0789 23.5798 81.1914 23.6079 81.2476 23.6922Z" fill="#101C2D"/>
</g>
</svg>
