<svg width="1207" height="1206" viewBox="0 0 1207 1206" fill="none" xmlns="http://www.w3.org/2000/svg">
<g clip-path="url(#clip0_412_2162)">
<rect x="0.699219" width="1205.33" height="1205.33" fill="#CAD5D5"/>
<path d="M896.538 543.408C896.538 733.306 765.272 796.763 603.363 796.763C441.453 796.763 310.188 733.306 310.188 543.408C310.188 353.513 441.453 199.57 603.363 199.57C765.272 199.57 896.538 353.513 896.538 543.408Z" fill="#A1B0B1"/>
<path d="M1072.83 1214.93C944.033 1317.57 780.856 1378.89 603.366 1378.89C425.876 1378.89 262.699 1317.57 133.902 1214.93C133.902 968.531 381.988 866.775 603.366 866.775C824.744 866.775 1072.83 995.222 1072.83 1214.93Z" fill="#A1B0B1"/>
</g>
<defs>
<clipPath id="clip0_412_2162">
<rect width="1205.33" height="1205.33" fill="white" transform="translate(0.699219)"/>
</clipPath>
</defs>
</svg>
